<svg width="57" height="57" viewBox="0 0 57 57" fill="none" xmlns="http://www.w3.org/2000/svg">
<path d="M28.5 4.84497C15.4375 4.84497 4.75 15.5087 4.75 28.6425C4.75 40.5175 13.4425 50.3737 24.795 52.155V35.53H18.7625V28.6425H24.795V23.3937C24.795 17.4325 28.3338 14.155 33.7725 14.155C36.3613 14.155 39.0688 14.6062 39.0688 14.6062V20.4725H36.0762C33.1312 20.4725 32.205 22.3012 32.205 24.1775V28.6425H38.8075L37.7388 35.53H32.205V52.155C37.8016 51.2711 42.8977 48.4156 46.5736 44.1039C50.2494 39.7922 52.2627 34.3084 52.25 28.6425C52.25 15.5087 41.5625 4.84497 28.5 4.84497Z" fill="#AAAAAA"/>
</svg>
