<svg width="57" height="57" viewBox="0 0 57 57" fill="none" xmlns="http://www.w3.org/2000/svg">
<path d="M28.5 4.75C25.3811 4.75 22.2928 5.36431 19.4113 6.55786C16.5298 7.75141 13.9116 9.50082 11.7062 11.7062C7.25222 16.1602 4.75 22.2011 4.75 28.5C4.75 38.9975 11.5663 47.9037 20.995 51.0625C22.1825 51.2525 22.5625 50.5163 22.5625 49.875C22.5625 49.3287 22.5625 47.8325 22.5625 45.8612C15.9838 47.2862 14.5825 42.6787 14.5825 42.6787C13.49 39.9237 11.9463 39.1875 11.9463 39.1875C9.785 37.715 12.1125 37.7625 12.1125 37.7625C14.4875 37.9287 15.7463 40.2088 15.7463 40.2088C17.8125 43.8188 21.3037 42.75 22.6575 42.18C22.8712 40.6363 23.4888 39.5913 24.1538 38.9975C18.8813 38.4038 13.3475 36.3612 13.3475 27.3125C13.3475 24.6762 14.25 22.5625 15.7938 20.8762C15.5563 20.2825 14.725 17.8125 16.0312 14.6063C16.0312 14.6063 18.0263 13.965 22.5625 17.0288C24.4388 16.5063 26.4812 16.245 28.5 16.245C30.5188 16.245 32.5612 16.5063 34.4375 17.0288C38.9737 13.965 40.9688 14.6063 40.9688 14.6063C42.275 17.8125 41.4438 20.2825 41.2063 20.8762C42.75 22.5625 43.6525 24.6762 43.6525 27.3125C43.6525 36.385 38.095 38.38 32.7988 38.9737C33.6538 39.71 34.4375 41.1588 34.4375 43.3675C34.4375 46.55 34.4375 49.115 34.4375 49.875C34.4375 50.5163 34.8175 51.2763 36.0288 51.0625C45.4575 47.88 52.25 38.9975 52.25 28.5C52.25 25.3811 51.6357 22.2928 50.4421 19.4113C49.2486 16.5298 47.4992 13.9116 45.2938 11.7062C43.0884 9.50082 40.4702 7.75141 37.5887 6.55786C34.7072 5.36431 31.6189 4.75 28.5 4.75Z" fill="#AAAAAA"/>
</svg>
