<svg width="57" height="57" viewBox="0 0 57 57" fill="none" xmlns="http://www.w3.org/2000/svg">
<path d="M47.5 42.75H42.75V21.9688L28.5 30.875L14.25 21.9688V42.75H9.5V14.25H12.35L28.5 24.3438L44.65 14.25H47.5M47.5 9.5H9.5C6.86375 9.5 4.75 11.6137 4.75 14.25V42.75C4.75 44.0098 5.25044 45.218 6.14124 46.1088C7.03204 46.9996 8.24022 47.5 9.5 47.5H47.5C48.7598 47.5 49.968 46.9996 50.8588 46.1088C51.7496 45.218 52.25 44.0098 52.25 42.75V14.25C52.25 11.6137 50.1125 9.5 47.5 9.5Z" fill="#AAAAAA"/>
</svg>
