<svg width="57" height="57" viewBox="0 0 57 57" fill="none" xmlns="http://www.w3.org/2000/svg">
<path d="M4.75 35.625C5.37989 35.625 5.98398 35.8752 6.42938 36.3206C6.87478 36.766 7.125 37.3701 7.125 38C7.125 38.6299 6.87478 39.234 6.42938 39.6794C5.98398 40.1248 5.37989 40.375 4.75 40.375C4.12011 40.375 3.51602 40.1248 3.07062 39.6794C2.62522 39.234 2.375 38.6299 2.375 38C2.375 37.3701 2.62522 36.766 3.07062 36.3206C3.51602 35.8752 4.12011 35.625 4.75 35.625ZM49.875 40.375H45.125V21.375H40.375V16.625H54.625V21.375H49.875V40.375ZM38 16.625V21.375H33.25V26.125H38V30.875H33.25V35.625H38V40.375H28.5V16.625H38ZM26.125 16.625V40.375H21.375L14.25 26.125V40.375H9.5V16.625H14.25L21.375 30.875V16.625H26.125Z" fill="#AAAAAA"/>
</svg>
