<svg width="57" height="57" viewBox="0 0 57 57" fill="none" xmlns="http://www.w3.org/2000/svg">
<path d="M28.0012 27.3125H23.085V19.4512H28.9512C31.9437 19.4512 33.6062 20.7812 33.6062 23.2275C33.6062 25.8875 31.635 27.3125 28.0012 27.3125ZM28.88 29.9963H23.085V38.6413H29.165C32.87 38.6413 34.8175 37.145 34.8175 34.295C34.8175 31.445 32.7987 29.9963 28.88 29.9963ZM52.25 12.6112V44.3888C52.25 48.6875 48.6875 52.25 44.3888 52.25H12.6112C8.3125 52.25 4.75 48.6875 4.75 44.3888V12.6112C4.75 8.3125 8.3125 4.75 12.6112 4.75H44.3888C48.6875 4.75 52.25 8.3125 52.25 12.6112ZM38 34.4375C38 31.16 35.815 28.8087 32.4663 28.3812V28.2388C34.8413 27.8113 36.7175 25.4363 36.7175 22.8713C36.7175 19.19 33.8675 16.7438 29.6875 16.7438H20.0213V41.3487H29.6163C34.865 41.3487 38 38.76 38 34.4375Z" fill="#AAAAAA"/>
</svg>
