<svg width="57" height="57" viewBox="0 0 57 57" fill="none" xmlns="http://www.w3.org/2000/svg">
<path d="M7.125 7.125H49.875V49.875H7.125V7.125ZM18.3588 42.845C19.3088 44.8638 21.185 46.5262 24.3913 46.5262C27.9538 46.5262 30.4 44.6263 30.4 40.47V26.7425H26.3625V40.375C26.3625 42.4175 25.5312 42.94 24.225 42.94C22.8475 42.94 22.2775 41.99 21.6362 40.8737L18.3588 42.845ZM32.5613 42.4175C33.7488 44.745 36.1475 46.5262 39.9 46.5262C43.7 46.5262 46.55 44.555 46.55 40.9212C46.55 37.5725 44.6263 36.0763 41.2062 34.6037L40.2088 34.1763C38.475 33.44 37.7388 32.9412 37.7388 31.7537C37.7388 30.78 38.475 30.02 39.6625 30.02C40.8025 30.02 41.5625 30.5187 42.2513 31.7537L45.3625 29.6875C44.0563 27.4075 42.2038 26.5287 39.6625 26.5287C36.0763 26.5287 33.7725 28.8087 33.7725 31.825C33.7725 35.1025 35.6962 36.6462 38.5938 37.8813L39.5913 38.3087C41.4437 39.1162 42.5363 39.615 42.5363 40.9925C42.5363 42.1325 41.4675 42.9637 39.805 42.9637C37.8337 42.9637 36.6938 41.9425 35.8388 40.5175L32.5613 42.4175Z" fill="#AAAAAA"/>
</svg>
