<svg width="57" height="57" viewBox="0 0 57 57" fill="none" xmlns="http://www.w3.org/2000/svg">
<path d="M47.5 16.625C47.5 16.625 47.5 7.125 35.625 7.125C31.9913 7.125 28.8563 7.57625 26.125 8.3125C24.9375 7.2675 17.2425 0.733875 9.5 8.47875L15.58 14.5587C5.9375 25.0087 9.5 42.75 9.5 42.75C9.5 42.75 2.375 42.75 2.375 52.25L11.875 49.875L21.375 52.25C21.375 42.75 14.25 42.75 14.25 42.75C14.25 42.75 16.2688 29.07 30.875 26.5525V33.25C35.625 33.25 37.24 28.9513 37.7388 26.125H42.75C52.25 26.125 54.625 23.75 54.625 21.375C54.625 19 49.875 16.625 47.5 16.625ZM42.75 19C41.4437 19 40.375 17.9312 40.375 16.625C40.375 15.3187 41.4437 14.25 42.75 14.25C44.0563 14.25 45.125 15.3187 45.125 16.625C45.125 17.9312 44.0563 19 42.75 19Z" fill="#AAAAAA"/>
</svg>
