<svg width="57" height="57" viewBox="0 0 57 57" fill="none" xmlns="http://www.w3.org/2000/svg">
<path d="M28.5 42.94C12.7537 42.94 0 36.48 0 28.5C0 20.52 12.7537 14.06 28.5 14.06C44.2463 14.06 57 20.52 57 28.5C57 36.48 44.2463 42.94 28.5 42.94ZM16.1737 24.0587C17.4562 24.0587 18.335 24.2962 18.7625 24.795C19.19 25.27 19.285 26.125 19.0712 27.2412C18.8337 28.5 18.3825 29.3075 17.6938 29.83C17.0287 30.3525 16.0075 30.6137 14.63 30.6137H12.5638L13.8225 24.0587H16.1737ZM7.86125 37.24H11.2812L12.0888 33.0837H15.01C16.2925 33.0837 17.3375 32.9412 18.1688 32.68C19 32.395 19.76 31.9437 20.4487 31.3025C21.0187 30.78 21.47 30.21 21.8262 29.5687C22.1825 28.9512 22.4438 28.2387 22.5625 27.4787C22.9425 25.6262 22.6812 24.1775 21.7787 23.1562C20.8525 22.1112 19.4275 21.6125 17.4562 21.6125H10.9013L7.86125 37.24ZM25.08 17.4562L22.04 33.0837H25.4125L27.17 24.13H29.8775C30.7325 24.13 31.3025 24.2725 31.5637 24.5575C31.825 24.8425 31.8725 25.365 31.73 26.125L30.3762 33.0837H33.82L35.2212 25.7925C35.53 24.32 35.2925 23.2512 34.58 22.5625C33.8675 21.9212 32.5612 21.6125 30.6612 21.6125H27.645L28.5 17.4562H25.08ZM42.75 24.0587C44.0563 24.0587 44.9113 24.2962 45.3387 24.795C45.7663 25.27 45.8612 26.125 45.6475 27.2412C45.41 28.5 44.9587 29.3075 44.2938 29.83C43.605 30.3525 42.5838 30.6137 41.2062 30.6137H39.1875L40.375 24.0587H42.75ZM34.4375 37.24H37.8575L38.665 33.0837H41.5625C42.8688 33.0837 43.9375 32.9412 44.7687 32.68C45.6 32.395 46.3125 31.9437 47.025 31.3025C47.595 30.78 48.07 30.21 48.4025 29.5687C48.7587 28.9512 49.02 28.2387 49.1625 27.4787C49.5188 25.6262 49.2575 24.1775 48.355 23.1562C47.5 22.1112 46.0038 21.6125 44.0325 21.6125H37.5013L34.4375 37.24Z" fill="#AAAAAA"/>
</svg>
