<svg width="57" height="57" viewBox="0 0 57 57" fill="none" xmlns="http://www.w3.org/2000/svg">
<path d="M39.1874 14.44C39.1874 14.44 22.9424 18.5013 30.7324 27.455C33.0362 30.0913 30.1387 32.4662 30.1387 32.4662C30.1387 32.4662 35.9574 29.4975 33.2499 25.6975C30.7324 22.2062 28.8324 20.4725 39.1874 14.44ZM28.5712 17.29C38.1899 9.69 33.2499 4.75 33.2499 4.75C35.2449 12.5875 26.2199 14.9625 22.9662 19.855C20.7337 23.18 24.0587 26.7663 28.4999 30.875C26.8137 26.8375 20.8524 23.37 28.5712 17.29ZM22.2537 41.4912C14.9387 43.5337 26.7187 47.7375 36.0049 43.7713C35.1024 43.415 34.2237 42.9875 33.3924 42.4887C30.1624 43.225 26.8374 43.3675 23.5599 42.9162C20.4487 42.5363 22.2537 41.4912 22.2537 41.4912ZM34.8887 37.5013C30.7324 38.4038 26.4337 38.6175 22.2062 38.1187C19.0949 37.81 21.1374 36.29 21.1374 36.29C13.0624 38.9738 25.6024 41.99 36.8124 38.7125C36.1237 38.4512 35.4587 38 34.8887 37.5013ZM43.0112 45.3387C43.0112 45.3387 44.3649 46.455 41.5624 47.31C36.1474 48.925 19.1662 49.4238 14.4637 47.3813C12.7774 46.645 15.9599 45.6238 16.9574 45.41C17.5037 45.2675 18.0499 45.22 18.5962 45.22C16.7199 43.9375 6.41241 47.8325 13.3949 48.925C32.3237 52.0125 47.9274 47.5 43.0112 45.3387ZM36.5037 33.7962C37.1924 33.345 37.9287 32.965 38.6887 32.6325C38.6887 32.6325 35.1024 33.25 31.5162 33.5825C27.7162 33.9625 23.8924 34.01 20.0924 33.725C14.5112 32.9888 23.1562 30.875 23.1562 30.875C20.5437 30.875 17.9787 31.4925 15.6512 32.6562C10.7824 35.0312 27.7637 36.1 36.5037 33.7962ZM38.6412 39.5438C38.5937 39.6387 38.5462 39.71 38.4512 39.7812C50.3499 36.67 45.9799 28.7612 40.2799 30.7325C39.9712 30.875 39.7099 31.065 39.5437 31.3262C39.8762 31.2075 40.2087 31.1125 40.5649 31.0412C43.4149 30.4712 47.4999 34.9125 38.6412 39.5438ZM38.9499 50.4925C31.8012 51.7275 24.4862 51.8225 17.2899 50.825C17.2899 50.825 18.3824 51.7275 23.9637 52.0838C32.5137 52.63 45.6474 51.775 45.9562 47.7375C46.0274 47.7612 45.4099 49.2812 38.9499 50.4925Z" fill="#AAAAAA"/>
</svg>
