<svg width="57" height="57" viewBox="0 0 57 57" fill="none" xmlns="http://www.w3.org/2000/svg">
<path fill-rule="evenodd" clip-rule="evenodd" d="M26.6001 7.78999H20.9951C17.8995 7.78999 15.3901 10.2994 15.3901 13.395C15.3901 16.4905 17.8995 19 20.9951 19H26.6001V7.78999ZM26.6001 3.98999H30.4001H36.0051C41.1995 3.98999 45.4099 8.20073 45.4099 13.395C45.4099 16.4602 43.9439 19.183 41.6741 20.9C43.9439 22.617 45.4099 25.3398 45.4099 28.405C45.4099 33.5992 41.1995 37.81 36.0051 37.81C33.9049 37.81 31.9654 37.1216 30.4001 35.9581V37.81V43.415C30.4001 48.6092 26.1893 52.82 20.9951 52.82C15.8008 52.82 11.5901 48.6092 11.5901 43.415C11.5901 40.3496 13.0564 37.627 15.3259 35.91C13.0564 34.193 11.5901 31.4702 11.5901 28.405C11.5901 25.3398 13.0565 22.617 15.326 20.9C13.0565 19.183 11.5901 16.4602 11.5901 13.395C11.5901 8.20073 15.8008 3.98999 20.9951 3.98999H26.6001ZM30.4001 7.78999V19H36.0051C39.1008 19 41.6099 16.4905 41.6099 13.395C41.6099 10.2994 39.1008 7.78999 36.0051 7.78999H30.4001ZM20.9951 34.01H26.6001V28.4195V28.405V28.3906V22.8H20.9951C17.8995 22.8 15.3901 25.3095 15.3901 28.405C15.3901 31.4932 17.8875 33.998 20.9729 34.01L20.9951 34.01ZM15.3901 43.415C15.3901 40.3268 17.8875 37.822 20.9729 37.81L20.9951 37.81H26.6001V43.415C26.6001 46.5105 24.0906 49.02 20.9951 49.02C17.8995 49.02 15.3901 46.5105 15.3901 43.415ZM30.4001 28.3939C30.4061 25.3034 32.9133 22.8 36.0051 22.8C39.1008 22.8 41.6099 25.3095 41.6099 28.405C41.6099 31.5006 39.1008 34.01 36.0051 34.01C32.9133 34.01 30.4061 31.5066 30.4001 28.4162V28.3939Z" fill="#AAAAAA"/>
</svg>
